# xmcd
# Copyright (C) 1995-1998 Ti Kan
#
# Track frame offsets:
#       150
#       18491
#       32920
#       47238
#       68202
#       86846
#       103990
#       124578
#       148359
#       167450
#       189312
#       208141
#       228148
#
# Disc length: 3345 seconds
#
# Revision: 0
# Processed by: cddbd v1.5.2PL0 Copyright (c) Steve Scherf et al.
# Submitted via: CD-Import v1.0
#
DISCID=ba0d0f0d
DTITLE=Maris - To Date With Fate
DYEAR=2010
DGENRE=
TTITLE0=Smile
TTITLE1=Stop Evolution
TTITLE2=Out Of Control
TTITLE3=Here Again
TTITLE4=Now Or Never
TTITLE5=Rule
TTITLE6=Lost Myself
TTITLE7=Alright (The Moment)
TTITLE8=Undertaken
TTITLE9=Iou
TTITLE10=Insecure
TTITLE11=You're Talking
TTITLE12=Not The One
EXTD=
EXTT0=
EXTT1=
EXTT2=
EXTT3=
EXTT4=
EXTT5=
EXTT6=
EXTT7=
EXTT8=
EXTT9=
EXTT10=
EXTT11=
EXTT12=
PLAYORDER=
